<?xml version="1.0" standalone="no"?><!DOCTYPE svg PUBLIC "-//W3C//DTD SVG 1.1//EN" "http://www.w3.org/Graphics/SVG/1.1/DTD/svg11.dtd"><svg t="1695123092985" class="icon" viewBox="0 0 1024 1024" version="1.1" xmlns="http://www.w3.org/2000/svg" p-id="1532" xmlns:xlink="http://www.w3.org/1999/xlink" width="200" height="200"><path d="M400.64 85.333333H175.36A90.026667 90.026667 0 0 0 85.333333 175.36v225.28A90.026667 90.026667 0 0 0 175.36 490.666667h225.28A90.026667 90.026667 0 0 0 490.666667 400.64V175.36A90.026667 90.026667 0 0 0 400.64 85.333333z m-45.013333 248.96c0 11.733333-9.6 21.333333-21.333334 21.333334h-92.373333c-11.733333 0-21.333333-9.6-21.333333-21.333334v-92.373333c0-11.733333 9.6-21.333333 21.333333-21.333333h92.373333c11.733333 0 21.333333 9.6 21.333334 21.333333v92.373333zM848.64 85.333333H623.36A90.026667 90.026667 0 0 0 533.333333 175.36v225.28A90.026667 90.026667 0 0 0 623.36 490.666667h225.28A90.026667 90.026667 0 0 0 938.666667 400.64V175.36A90.026667 90.026667 0 0 0 848.64 85.333333z m-45.013333 248.96c0 11.733333-9.6 21.333333-21.333334 21.333334h-92.373333c-11.733333 0-21.333333-9.6-21.333333-21.333334v-92.373333c0-11.733333 9.6-21.333333 21.333333-21.333333h92.373333c11.733333 0 21.333333 9.6 21.333334 21.333333v92.373333zM400.64 533.333333H175.36A90.026667 90.026667 0 0 0 85.333333 623.36v225.28A90.026667 90.026667 0 0 0 175.36 938.666667h225.28A90.026667 90.026667 0 0 0 490.666667 848.64V623.36A90.026667 90.026667 0 0 0 400.64 533.333333z m-45.013333 248.96c0 11.733333-9.6 21.333333-21.333334 21.333334h-92.373333c-11.733333 0-21.333333-9.6-21.333333-21.333334v-92.373333c0-11.733333 9.6-21.333333 21.333333-21.333333h92.373333c11.733333 0 21.333333 9.6 21.333334 21.333333v92.373333zM919.893333 523.733333h-27.306666c-10.453333 0-18.773333 8.533333-18.773334 18.773334v27.306666c0 10.453333-8.533333 18.773333-18.773333 18.773334H827.733333c-10.453333 0-18.773333-8.533333-18.773333-18.773334v-27.306666c0-10.453333-8.533333-18.773333-18.773333-18.773334h-27.306667c-10.453333 0-18.773333 8.533333-18.773333 18.773334v27.306666c0 10.453333 8.533333 18.773333 18.773333 18.773334h27.306667c10.453333 0 18.773333 8.533333 18.773333 18.773333v35.413333c0 10.453333 8.533333 18.773333 18.773333 18.773334h27.306667c10.453333 0 18.773333 8.533333 18.773333 18.773333v27.306667c0 10.453333 8.533333 18.773333 18.773334 18.773333h27.306666c10.453333 0 18.773333-8.533333 18.773334-18.773333v-165.546667c0-9.813333-8.533333-18.346667-18.773334-18.346667zM906.24 856.96h-1.706667c-17.066667 0-30.72-13.866667-30.72-30.72v-3.626667c0-17.066667-13.866667-30.72-30.72-30.72h-3.626666c-17.066667 0-30.72-13.866667-30.72-30.72v-68.48c0-17.066667-13.866667-30.72-30.72-30.72H712.533333c-17.92 0-34.133333 13.866667-33.706666 31.573334 0.426667 18.346667-14.293333 33.28-32.426667 33.28h-10.026667c-17.066667 0-30.72-13.653333-30.72-30.72v-76.586667c0-17.066667 13.866667-30.72 30.72-30.72h11.733334c17.066667 0 30.72-13.866667 30.72-30.72v-3.626667c0-17.066667-13.866667-30.72-30.72-30.72h-76.586667c-17.066667 0-30.72 13.866667-30.72 30.72v336.64c0 17.066667 13.866667 30.72 30.72 30.72h76.586667c17.066667 0 30.72-13.866667 30.72-30.72v-3.626666c0-17.066667-13.866667-30.72-30.72-30.72h-11.733334c-17.066667 0-30.72-13.653333-30.72-30.72v-3.626667c0-17.066667 13.653333-30.72 30.72-30.72h11.733334c17.066667 0 30.72-13.866667 30.72-30.72v-3.626667c0-17.066667 13.866667-30.72 30.72-30.72h3.626666c17.066667 0 30.72 13.866667 30.72 30.72v68.48c0 17.066667 13.866667 30.72 30.72 30.72h3.626667c17.066667 0 30.72 13.866667 30.72 30.72v3.626667c0 17.066667 13.866667 30.72 30.72 30.72h66.986667c12.16 0 23.893333-6.613333 29.013333-17.706667 10.453333-23.68-6.826667-46.933333-29.44-46.933333z" p-id="1533"></path></svg>